<?xml version="1.0" encoding="UTF-8"?>
<!DOCTYPE svg PUBLIC "-//W3C//DTD SVG 1.1//EN" "http://www.w3.org/Graphics/SVG/1.1/DTD/svg11.dtd">
<svg version="1.1" xmlns="http://www.w3.org/2000/svg" xmlns:xlink="http://www.w3.org/1999/xlink" x="0" y="0" width="453.368" height="92.41" viewBox="0, 0, 453.368, 92.41">
  <defs>
    <linearGradient id="Gradient_1" gradientUnits="userSpaceOnUse" x1="3.089" y1="-17.472" x2="77.404" y2="83.434">
      <stop offset="0" stop-color="#3F5A98"/>
      <stop offset="1" stop-color="#61C2D3"/>
    </linearGradient>
    <linearGradient id="Gradient_2" gradientUnits="userSpaceOnUse" x1="15.932" y1="-26.931" x2="90.248" y2="73.976">
      <stop offset="0" stop-color="#3F5A98"/>
      <stop offset="1" stop-color="#61C2D3"/>
    </linearGradient>
    <linearGradient id="Gradient_3" gradientUnits="userSpaceOnUse" x1="-24.996" y1="3.212" x2="49.32" y2="104.118">
      <stop offset="0" stop-color="#3F5A98"/>
      <stop offset="1" stop-color="#61C2D3"/>
    </linearGradient>
  </defs>
  <g id="Layer_1">
    <path d="M144,67.53 C147.141,67.53 149.909,67.256 152.306,66.705 C154.701,66.157 156.704,65.135 158.314,63.641 C159.923,62.151 161.121,59.99 161.907,57.162 C162.692,54.334 163.086,50.644 163.086,46.088 C163.086,41.611 162.692,37.959 161.907,35.132 C161.121,32.304 159.923,30.145 158.314,28.652 C156.704,27.16 154.701,26.139 152.306,25.589 C149.909,25.041 147.141,24.764 144,24.764 C140.858,24.764 138.11,25.041 135.753,25.589 C133.397,26.139 131.433,27.16 129.863,28.652 C128.291,30.145 127.113,32.304 126.329,35.132 C125.543,37.959 125.151,41.611 125.151,46.088 C125.151,50.644 125.543,54.334 126.329,57.162 C127.113,59.99 128.291,62.151 129.863,63.641 C131.433,65.135 133.397,66.157 135.753,66.705 C138.11,67.256 140.858,67.53 144,67.53 z M143.765,74.127 C138.658,74.127 134.163,73.753 130.275,73.008 C126.388,72.262 123.128,70.907 120.497,68.943 C117.865,66.98 115.902,64.172 114.607,60.519 C113.311,56.868 112.663,52.057 112.663,46.088 C112.663,40.121 113.37,35.29 114.783,31.597 C116.197,27.906 118.259,25.078 120.968,23.115 C123.678,21.153 127.015,19.837 130.982,19.168 C134.947,18.501 139.483,18.167 144.589,18.167 C149.694,18.167 154.171,18.54 158.02,19.286 C161.867,20.033 165.107,21.388 167.739,23.351 C170.369,25.315 172.334,28.122 173.629,31.774 C174.926,35.426 175.574,40.197 175.574,46.088 C175.574,52.137 174.866,56.985 173.453,60.637 C172.039,64.29 169.977,67.098 167.268,69.061 C164.558,71.025 161.239,72.359 157.313,73.067 C153.384,73.773 148.869,74.127 143.765,74.127" fill="#000000"/>
    <path d="M200.902,45.97 C201.922,45.97 203.512,45.99 205.673,46.029 C207.832,46.069 210.209,46.108 212.801,46.147 C215.393,46.187 217.788,46.206 219.987,46.206 C222.185,46.206 223.757,46.206 224.7,46.206 C227.133,46.206 229.274,45.46 231.12,43.967 C232.965,42.477 233.889,39.687 233.889,35.603 C233.889,32.776 233.359,30.536 232.299,28.888 C231.238,27.238 229.53,26.296 227.174,26.06 C225.76,25.824 223.914,25.688 221.637,25.648 C219.358,25.609 217.002,25.589 214.568,25.589 C212.133,25.589 209.914,25.609 207.912,25.648 C205.909,25.688 204.396,25.747 203.376,25.824 C203.141,25.824 202.669,25.942 201.962,26.177 C201.255,26.414 200.902,27.16 200.902,28.417 L200.902,45.97 z M222.579,52.213 C218.573,52.213 214.921,52.213 211.623,52.213 C208.324,52.213 204.75,52.255 200.902,52.332 L200.902,73.302 L188.768,73.302 L188.768,25.589 C188.768,23.312 189.257,21.682 190.24,20.699 C191.222,19.719 192.968,19.188 195.483,19.109 C196.661,19.032 198.27,18.992 200.313,18.992 C202.354,18.992 204.672,18.973 207.264,18.933 C209.856,18.894 212.506,18.874 215.216,18.874 C217.926,18.874 220.536,18.874 223.051,18.874 C225.563,18.874 227.781,18.914 229.707,18.992 C231.63,19.071 233.103,19.15 234.125,19.227 C238.287,19.622 241.35,20.956 243.314,23.233 C245.276,25.512 246.259,28.967 246.259,33.6 C246.259,37.449 245.806,40.415 244.904,42.495 C244,44.577 242.646,46.167 240.84,47.266 C240.525,47.501 240.034,47.698 239.367,47.856 C238.699,48.014 238.012,48.091 237.306,48.091 L237.306,48.444 C237.698,48.444 238.13,48.444 238.601,48.444 C239.073,48.444 239.465,48.444 239.779,48.444 C242.763,48.995 244.569,50.173 245.198,51.978 C245.827,53.786 246.141,55.631 246.141,57.515 L246.141,70.003 C246.141,71.025 246.239,71.811 246.436,72.359 C246.631,72.91 246.769,73.225 246.848,73.302 L238.012,73.302 C236.676,73.302 235.615,73.087 234.831,72.654 C234.046,72.223 233.653,71.143 233.653,69.414 L233.653,58.34 C233.653,55.907 233.123,54.275 232.063,53.451 C231.002,52.626 229.136,52.213 226.467,52.213 L222.579,52.213" fill="#000000"/>
    <path d="M291.262,67.412 C293.225,67.412 295.092,67.353 296.858,67.234 C298.626,67.117 300.216,66.784 301.63,66.233 C303.043,65.685 304.163,64.722 304.988,63.347 C305.811,61.974 306.224,60.069 306.224,57.634 C306.224,54.178 305.458,51.783 303.927,50.447 C302.395,49.113 299.392,48.444 294.914,48.444 L277.125,48.444 C276.024,48.444 275.299,47.955 274.945,46.972 C274.592,45.99 274.416,44.517 274.416,42.554 L294.561,42.554 C296.211,42.554 297.76,42.338 299.214,41.906 C300.667,41.475 301.845,40.571 302.749,39.195 C303.65,37.822 304.104,35.761 304.104,33.011 C304.104,30.419 303.533,28.417 302.395,27.002 C301.256,25.589 299.392,24.764 296.799,24.529 C295.463,24.451 293.931,24.392 292.205,24.352 C290.476,24.313 288.789,24.293 287.139,24.293 C285.018,24.293 283.015,24.293 281.131,24.293 C279.246,24.293 277.635,24.334 276.301,24.411 C275.435,24.411 274.71,24.667 274.121,25.177 C273.532,25.688 273.237,26.532 273.237,27.71 L273.237,67.293 C273.944,67.293 274.729,67.314 275.594,67.353 C276.457,67.393 277.497,67.412 278.715,67.412 C279.933,67.412 281.543,67.412 283.546,67.412 C285.549,67.412 288.12,67.412 291.262,67.412 z M294.796,73.537 C288.748,73.537 283.564,73.537 279.246,73.537 C274.925,73.537 271.294,73.517 268.348,73.479 C265.403,73.438 262.988,73.379 261.103,73.302 L261.103,24.529 C261.103,22.252 261.593,20.8 262.576,20.17 C263.557,19.542 264.912,19.188 266.64,19.109 C268.997,19.109 271.096,19.091 272.943,19.051 C274.787,19.012 276.477,18.973 278.009,18.933 C279.54,18.894 281.032,18.874 282.486,18.874 C283.938,18.874 285.49,18.874 287.139,18.874 C289.024,18.874 291.027,18.894 293.148,18.933 C295.268,18.973 297.271,19.012 299.155,19.051 C301.041,19.091 302.493,19.15 303.514,19.227 C307.912,19.542 311.132,20.758 313.175,22.879 C315.216,24.999 316.238,28.142 316.238,32.304 C316.238,35.367 315.747,37.822 314.766,39.667 C313.783,41.514 312.527,42.81 310.995,43.554 C309.464,44.302 307.951,44.754 306.46,44.91 C308.11,44.91 309.641,45.068 311.054,45.381 C312.469,45.696 313.724,46.305 314.825,47.207 C315.924,48.111 316.787,49.445 317.416,51.213 C318.044,52.98 318.359,55.318 318.359,58.222 C318.359,61.756 317.77,64.566 316.592,66.646 C315.413,68.728 313.783,70.259 311.703,71.24 C309.621,72.223 307.127,72.851 304.221,73.125 C301.315,73.4 298.172,73.537 294.796,73.537" fill="#000000"/>
    <path d="M329.787,47.737 L358.532,47.737 L358.532,53.746 L329.787,53.746 z" fill="#000000"/>
    <path d="M372.903,73.302 C372.903,64.979 372.903,56.673 372.903,48.385 C372.903,40.099 372.903,31.833 372.903,23.586 C372.903,22.566 372.963,21.741 373.081,21.112 C373.199,20.484 373.552,19.993 374.141,19.639 C374.73,19.286 375.691,19.109 377.027,19.109 L385.039,19.109 L385.039,73.302 L372.903,73.302" fill="#000000"/>
    <path d="M396.348,19.109 L453.368,19.109 L453.368,25.824 L430.984,25.824 L430.984,68.708 C430.984,70.435 430.728,71.635 430.219,72.301 C429.707,72.969 428.549,73.302 426.743,73.302 L418.85,73.302 L418.85,25.824 L396.348,25.824 L396.348,19.109" fill="#000000"/>
    <path d="M57.95,0 L57.938,0.006 C45.403,0.006 38.524,14.85 37.312,17.097 C37.288,17.133 27.513,35.353 27.513,35.353 L0,35.353 L13.41,9.416 C16.404,3.629 22.367,0 28.884,0 L57.95,0 z" fill="url(#Gradient_1)"/>
    <path d="M73.269,79.014 L73.269,79 C78.073,67.424 66.999,55.379 65.389,53.398 C65.365,53.363 52.283,37.351 52.283,37.351 L62.829,11.939 L81.645,34.266 C85.843,39.249 86.909,46.149 84.411,52.167 L73.269,79.014 z" fill="url(#Gradient_2)"/>
    <path d="M0,45.476 L0.009,45.486 C3.226,57.6 19.339,60.44 21.822,61.034 C21.862,61.048 41.981,65.819 41.981,65.819 L49.043,92.41 L20.533,86.107 C14.171,84.699 9.133,79.866 7.461,73.569 L0,45.476 z" fill="url(#Gradient_3)"/>
  </g>
</svg>
